<svg width="53" height="62" viewBox="0 0 53 62" fill="none" xmlns="http://www.w3.org/2000/svg">
<g clip-path="url(#clip0_12_138)">
<path d="M26.1346 15.0005C29.5256 15.0005 32.5004 13.6634 35.0588 10.9891C37.6173 8.31479 38.8966 5.20506 38.8966 1.6599C38.8966 1.27054 38.8661 0.717242 38.8052 0C38.3585 0.0614779 38.0235 0.112709 37.8001 0.153695C34.6731 0.604533 31.9217 2.15173 29.5459 4.79521C27.1702 7.43876 25.9823 10.2667 25.9823 13.2792C25.9823 13.6275 26.0331 14.2013 26.1346 15.0005ZM38.2874 62C40.7038 62 43.3739 60.3299 46.298 56.9896C49.222 53.6493 51.4555 49.725 52.9988 45.2167C47.2523 42.2247 44.3791 37.9316 44.3791 32.3371C44.3791 27.6649 46.7041 23.6689 51.3541 20.3491C48.1255 16.271 43.8613 14.232 38.5616 14.232C36.3279 14.232 34.2873 14.5701 32.4395 15.2464L31.2821 15.6767L29.7287 16.2915C28.7134 16.6809 27.7895 16.8756 26.957 16.8756C26.3072 16.8756 25.4543 16.6501 24.3985 16.1993L23.2106 15.7075L22.0837 15.2464C20.4389 14.5496 18.6723 14.2013 16.7839 14.2013C11.7278 14.2013 7.66674 15.9226 4.60058 19.3654C1.53442 22.8081 0.00137329 27.3472 0.00137329 32.9826C0.00137329 40.9132 2.45832 48.2393 7.37228 54.9608C10.7836 59.6536 13.9005 62 16.723 62C17.921 62 19.1089 61.7643 20.2866 61.293L21.779 60.6782L22.967 60.2479C24.632 59.6536 26.165 59.3565 27.5661 59.3565C29.0484 59.3565 30.7541 59.7356 32.6831 60.4938L33.6273 60.8627C35.5969 61.6209 37.1504 62 38.2874 62Z" fill="black"/>
</g>
<defs>
<clipPath id="clip0_12_138">
<rect width="53" height="62" fill="white"/>
</clipPath>
</defs>
</svg>
