<svg width="112" height="74" viewBox="0 0 112 74" fill="none" xmlns="http://www.w3.org/2000/svg">
<path d="M8.01133 73.9943C7.96373 73.9888 7.80237 73.9721 7.65275 73.9571C6.287 73.8203 4.82908 73.2629 3.68303 72.4396C1.96476 71.2051 0.753915 69.4075 0.248859 67.3414C-0.0195329 66.2435 -0.072875 65.0135 0.0987743 63.8819C0.55902 60.848 2.56804 58.2493 5.35496 57.0828C6.05049 56.7917 6.74074 56.6077 7.55383 56.4964C8.00456 56.4348 9.10224 56.4345 9.55694 56.4959C10.5212 56.6261 11.3386 56.8687 12.1783 57.2742C13.1023 57.7203 13.7418 58.1797 14.5158 58.9534C15.1924 59.6298 15.6103 60.1928 16.0947 61.0809L16.1978 61.2698L15.8325 61.5394C15.3294 61.9108 14.1493 62.7511 13.765 63.0116L13.4474 63.2268L13.3168 62.9435C13.1553 62.5933 13.0404 62.3857 12.8542 62.1083C12.1103 60.9997 10.9241 60.2078 9.63113 59.9568C8.94696 59.8239 8.10466 59.8387 7.43019 59.9954C6.72192 60.16 5.9528 60.5291 5.36525 60.9865C5.12841 61.1709 4.69253 61.6022 4.50075 61.8421C3.46593 63.1361 3.08477 64.7847 3.43967 66.4313C3.56255 67.0014 3.8806 67.7462 4.2124 68.2409C5.09055 69.5502 6.43659 70.389 7.96123 70.577C8.23076 70.6103 8.88002 70.6103 9.14955 70.577C10.4998 70.4105 11.7474 69.7104 12.5999 68.641C12.8509 68.326 13.0259 68.0534 13.2254 67.6662C13.3129 67.4965 13.3917 67.3577 13.4006 67.3577C13.4096 67.3577 14.0312 67.7955 14.782 68.3306L16.1472 69.3034L16.0089 69.5645C15.7218 70.1063 15.2279 70.7874 14.7679 71.2759C13.9842 72.108 13.2209 72.6735 12.2277 73.1577C11.3699 73.5759 10.461 73.8426 9.4951 73.9596C9.27854 73.9859 8.1653 74.0118 8.01133 73.9943ZM19.6838 65.1367V56.6103H22.9976V62.7305H31.653V56.6103H34.9668V73.6631H31.653V66.1608H22.9976V73.6631H19.6838V65.1367ZM38.3147 72.1515C38.6841 71.3202 40.3882 67.4833 42.1017 63.6251L45.2172 56.6103L47.5418 56.6106L49.8664 56.6108L53.6325 65.0321C55.7038 69.6638 57.4198 73.5005 57.4459 73.5582L57.4931 73.6631H53.5252L52.7592 71.9727L51.9931 70.2824L47.5591 70.2884L43.125 70.2945L42.3675 71.9788L41.6101 73.6631H37.6431L38.3147 72.1515ZM50.5916 66.8421C50.5776 66.782 47.5671 60.0666 47.5542 60.0668C47.545 60.0669 44.6859 66.7258 44.6402 66.8535C44.6352 66.8676 45.7784 66.8765 47.6158 66.8765C50.1539 66.8765 50.5984 66.8714 50.5916 66.8421ZM60.1664 65.1367V56.6103L62.4972 56.6108L64.828 56.6113L68.4756 61.7238L72.1233 66.8363L72.1295 61.7233L72.1357 56.6103H75.4741V73.6635L74.1346 73.6571L72.7951 73.6507L68.1685 67.2415C65.624 63.7163 63.5337 60.8318 63.5235 60.8312C63.5133 60.8307 63.5049 63.7177 63.5049 67.2467V73.6631H60.1664V65.1367ZM81.5082 65.1367V56.6103H93.4527V60.0406H84.8467V63.4462H92.8097V66.8765H84.8467V70.2821H94.6892V73.6631H81.5082V65.1367ZM99.3631 65.1367V56.6103H102.702V70.2821H112V73.6631H99.3631V65.1367ZM42.1516 52.2733C38.5847 52.1087 34.6127 51.0279 31.4105 49.3506C28.9522 48.063 27.0039 46.6222 24.9628 44.5822C23.3641 42.9844 22.1847 41.5127 21.1863 39.8697L20.7493 39.1505L21.3693 38.8223C22.5775 38.1828 28.085 35.3685 28.1283 35.3685C28.1524 35.3685 28.3799 35.6776 28.6339 36.0553C31.5041 40.3244 35.9943 43.1014 41.2488 43.8573C42.1674 43.9894 44.9297 43.9684 45.93 43.8216C47.043 43.6583 48.3781 43.3554 49.2261 43.0738C49.2812 43.0555 49.1758 42.8846 48.9332 42.5992C47.055 40.3898 45.3428 37.3574 44.3796 34.5343C42.6372 29.4277 42.5132 23.9461 44.0235 18.7958C44.9614 15.5975 46.5755 12.4931 48.6196 9.95623C48.9241 9.57828 49.1733 9.2448 49.1733 9.21521C49.1733 9.11454 47.5777 8.69069 46.5318 8.51355C44.9161 8.23989 42.3866 8.20596 40.9263 8.43835C38.4692 8.82941 35.9753 9.74772 34.0265 10.979C31.8548 12.3511 30.0438 14.1144 28.5987 16.2639L27.9606 17.213L27.1483 16.7875C26.7016 16.5535 25.0421 15.6952 23.4606 14.8804C21.879 14.0655 20.5801 13.3945 20.5741 13.3892C20.549 13.3671 21.5391 11.7955 21.9466 11.2107C23.1841 9.43519 25.3814 7.08373 27.0048 5.79774C31.2499 2.43505 35.9692 0.541227 41.2823 0.0682641C42.2678 -0.0194925 44.7117 -0.0202575 45.6625 0.0668574C49.0356 0.375881 51.927 1.19207 54.9143 2.67828L56.3419 3.38858L56.8202 3.11699C57.5925 2.67843 58.9646 2.04565 60.0068 1.64744C62.9307 0.53022 65.8755 -0.00157591 69.129 3.50754e-06C71.401 0.00111404 73.2964 0.223886 75.354 0.731645C80.0025 1.87875 83.9667 4.07873 87.3823 7.40684C89.234 9.21113 90.6852 11.0534 91.8568 13.0872L92.0344 13.3955L89.1445 14.8833C87.555 15.7016 85.8923 16.5606 85.4495 16.7923L84.6446 17.2136L84.0361 16.2976C81.0338 11.778 76.1228 8.83568 70.7474 8.33586C69.1561 8.18789 66.7931 8.32414 65.3567 8.64671C64.6174 8.81273 63.4173 9.15489 63.4177 9.19956C63.4179 9.22291 63.6142 9.48225 63.854 9.7759C66.9344 13.5477 68.8578 18.1455 69.4792 23.2229C69.6276 24.4347 69.6474 27.5288 69.5144 28.7285C68.9531 33.7948 67.0334 38.4703 63.9693 42.2343C63.2746 43.0876 63.3043 43.0285 63.527 43.1144C63.6322 43.155 64.1246 43.2909 64.6211 43.4164C67.1447 44.0545 69.8612 44.1447 72.4118 43.675C77.0509 42.8207 81.2291 40.0828 83.9164 36.136C84.1663 35.7689 84.392 35.444 84.4179 35.4139C84.4438 35.3838 85.0633 35.6585 85.7945 36.0242C87.2429 36.7488 91.78 39.0918 91.8286 39.1403C91.9097 39.2212 90.4637 41.3631 89.577 42.4757C88.7374 43.5291 86.5368 45.7225 85.4855 46.554C81.6861 49.5587 77.4223 51.3959 72.7259 52.0518C67.3335 52.8049 61.6227 51.7963 56.9762 49.2701L56.3195 48.9131L55.505 49.3432C51.4693 51.474 46.8402 52.4897 42.1516 52.2733ZM57.217 37.4707C59.4659 34.6926 60.8691 31.3228 61.215 27.8695C61.331 26.7105 61.262 24.3496 61.0813 23.2942C60.5839 20.3901 59.5196 17.9011 57.8027 15.6265C57.4794 15.1982 57.0086 14.6256 56.7565 14.3541L56.298 13.8605L55.8727 14.3207C55.312 14.9274 54.3777 16.1651 53.9068 16.925C51.5157 20.7834 50.735 25.5237 51.7476 30.0354C52.3848 32.8745 53.8498 35.7345 55.8242 37.9936L56.2788 38.5138L56.4778 38.3259C56.5872 38.2226 56.9198 37.8377 57.217 37.4707Z" fill="black"/>
</svg>
