<svg width="62" height="62" viewBox="0 0 62 62" fill="none" xmlns="http://www.w3.org/2000/svg">
<g clip-path="url(#clip0_12_140)">
<path d="M31.0005 62C30.6924 62 30.3855 61.9945 30.0791 61.9856L36.4146 44.5743H45.1333C46.6637 44.5743 48.3435 43.3978 48.867 41.9605L55.7401 23.0812C56.8647 19.9903 55.0942 17.4615 51.8052 17.4615H39.7095L29.561 45.3494H29.5571L23.8035 61.1584C10.1536 57.9135 0.000488281 45.6429 0.000488281 31C0.000488281 16.7795 9.57604 4.79639 22.6309 1.14442L16.6943 17.4615H16.6926L6.82336 44.5743L13.3932 44.5748L21.7862 21.5358H26.7239L18.331 44.5748L24.8984 44.576L32.7198 23.0812C33.845 19.9903 32.0744 17.4615 28.7884 17.4615H23.2658L29.6069 0.0325787C30.069 0.0120556 30.5332 0 31.0002 0C48.1211 0 62.0002 13.8791 62.0002 31C62.0002 48.1208 48.1211 62 31.0002 62H31.0005ZM49.7572 21.5192H44.8209L37.908 40.4863H42.8445L49.7572 21.5192Z" fill="black"/>
</g>
<defs>
<clipPath id="clip0_12_140">
<rect width="62" height="62" fill="white"/>
</clipPath>
</defs>
</svg>
