<svg width="62" height="62" viewBox="0 0 62 62" fill="none" xmlns="http://www.w3.org/2000/svg">
<g clip-path="url(#clip0_12_142)">
<path fill-rule="evenodd" clip-rule="evenodd" d="M47.1028 27.2229C46.9136 27.2229 46.4016 27.2769 46.105 27.3306C46.0503 27.4927 45.2687 27.8433 45.4572 28.8147C45.5917 29.4085 45.8889 29.8401 45.7538 29.9479C45.3761 30.1637 44.8371 29.7861 44.3511 29.5973C43.866 29.3544 43.1111 29.0305 42.6248 29.6513C42.1931 30.2448 43.6769 30.1637 44.9448 30.8382C45.8892 31.3242 46.5367 31.2162 48.0471 31.3783C49.5579 31.4857 49.6383 30.8382 49.8809 30.8656C50.0977 30.9196 50.0166 31.5127 50.7178 31.7289C51.0414 31.8099 51.7696 31.4046 51.9044 31.4587C52.1205 31.4857 52.1205 31.918 52.6326 32.1335C53.1993 32.2956 53.3614 31.972 53.5499 31.891C53.712 31.8099 53.7391 32.2146 54.0626 32.2956C54.3862 32.3497 54.8719 32.3226 55.1148 32.3496C55.3032 32.4307 55.1148 32.6732 55.6545 32.7543C56.1395 32.8353 56.3016 32.5652 56.5442 32.6462C56.7333 32.7273 56.9765 33.267 58.0009 33.1859C58.6487 33.1319 58.4873 32.7273 58.3245 32.4307C58.1354 32.1335 56.7333 31.891 54.4673 31.0814C50.6371 29.7594 49.6116 30.0833 48.8027 28.5182C48.4791 27.8707 48.2906 27.5198 48.2366 27.3042C48.0201 27.2499 47.6155 27.2772 47.1028 27.2229Z" fill="black"/>
<path fill-rule="evenodd" clip-rule="evenodd" d="M59.9971 31.5671C59.8343 31.459 59.2952 31.9724 59.0797 31.8913C58.8366 31.8102 58.6481 31.486 58.4589 31.405C58.2164 31.3246 58.0813 31.459 57.8388 31.405C57.6497 31.3786 57.7848 31.0814 57.6227 31.0003C57.4065 30.9199 57.2984 31.1354 57.0559 31.0544C56.8668 31.0003 56.7323 30.6501 56.5702 30.569C56.3817 30.5153 56.3277 30.7575 56.1122 30.6768C55.815 30.569 55.7339 30.3528 55.5454 30.2721C55.3833 30.164 55.0327 30.4876 54.7902 30.3528C54.547 30.2451 54.547 29.4085 54.3849 29.3274C54.1964 29.2467 53.6027 29.9212 53.3601 29.7594C53.144 29.6517 53.2251 29.0305 53.0359 28.9228C52.8745 28.8147 52.1462 29.4355 51.9571 29.3544C51.7956 29.2734 51.768 28.9498 51.5255 28.9228C51.3093 28.8958 50.9317 29.1927 50.6892 29.1116C50.2035 28.9228 49.61 29.0039 48.8818 27.2769C48.8008 27.0611 48.6393 26.926 48.4772 27.007C48.0455 27.1688 48.2076 27.3306 48.8008 28.5182C49.61 30.0833 50.6351 29.7594 54.4653 31.0814C56.7314 31.8913 58.1334 32.1335 58.3226 32.4307C58.4853 32.7273 58.6468 33.1319 57.999 33.1859C56.9742 33.267 56.7314 32.7273 56.5422 32.6462C56.2997 32.5652 56.1376 32.8353 55.6526 32.7543C55.1128 32.6732 55.3013 32.4307 55.1128 32.3497C54.8697 32.3226 54.384 32.3497 54.0607 32.2956C53.7371 32.2146 53.7101 31.8099 53.548 31.891C53.3595 31.972 53.1974 32.2956 52.6306 32.1335C52.1186 31.918 52.1186 31.4857 51.9024 31.4587C51.7673 31.4046 51.0391 31.8099 50.7159 31.7289C50.0147 31.5127 50.0957 30.9196 49.8789 30.8656C49.6364 30.8385 49.556 31.4857 48.0452 31.3783C46.5351 31.2162 45.8873 31.3242 44.9429 30.8382C43.6753 30.1637 42.1912 30.2448 42.6228 29.6513C43.1092 29.0305 43.8641 29.3544 44.3491 29.5973C44.8355 29.7861 45.3745 30.1637 45.7518 29.9479C45.8869 29.8401 45.5897 29.4085 45.4553 28.8147C45.2668 27.7626 46.1841 27.4387 46.1031 27.2769C45.968 27.0878 45.4553 26.8182 44.2147 27.007C43.3784 27.1418 41.7595 28.4101 41.3549 28.5992C40.9502 28.8417 39.2786 29.7324 38.3606 28.4101C37.4439 27.0611 38.2802 25.6851 38.6578 25.2534C39.0084 24.8218 39.6022 24.4979 39.8174 24.8218C40.1146 25.3345 39.4128 25.4692 39.1162 25.8202C38.846 26.1711 38.415 27.3583 38.9 27.898C39.4128 28.4374 40.3568 28.4915 41.4356 27.6822C42.3259 27.0077 43.7827 26.063 45.2118 26.1714C46.6685 26.2518 47.4244 26.9266 47.6399 26.981C47.8561 27.0077 48.0446 26.5223 48.3411 26.4142C48.5573 26.3332 48.8538 26.6031 49.0423 26.522C49.2044 26.4142 49.3936 25.9823 49.6091 25.9012C49.8522 25.8202 50.446 26.2248 50.6345 26.09C50.7966 26.009 50.7696 25.4966 51.0391 25.4696C51.3087 25.4155 51.7673 25.9012 51.9565 25.8202C52.199 25.6854 52.199 25.4152 52.4415 25.4152C52.6306 25.4152 53.0623 26.063 53.2785 26.009C53.4399 25.9823 53.3865 25.3348 53.6291 25.2537C53.8716 25.1727 54.4924 25.6854 54.7082 25.6043C54.8697 25.5236 54.8967 24.7407 55.1932 24.5789C55.4634 24.4712 55.733 24.9028 55.8951 24.8218C56.1112 24.7407 56.2457 23.85 56.4888 23.8234C56.7043 23.7963 57.136 24.0659 57.3245 24.0122C57.4866 23.9851 57.4055 23.1759 57.7291 23.0138C58.0533 22.906 58.458 23.4187 58.5661 23.392C58.7275 23.338 58.8086 22.906 58.9707 22.879C59.1592 22.825 59.6449 23.2296 59.888 23.1759C60.0765 23.0948 59.9961 22.5014 60.2116 22.474C60.3737 22.42 61.0479 22.5551 60.9939 21.7995C60.9669 21.044 59.9961 20.3154 59.0791 20.3154C57.4062 20.3154 55.7339 21.044 54.3039 21.3138C52.8748 21.5567 49.9346 22.42 49.2057 22.5554C48.4775 22.6632 47.776 22.2585 48.4235 21.7455C48.9362 21.2598 49.2057 21.6377 49.2057 21.476C49.2057 21.3138 48.8821 21.1521 48.4235 21.071C47.9378 20.9903 47.3717 21.476 46.7512 21.3949C46.1311 21.3138 45.5106 20.8285 44.8364 20.9632C43.1912 21.1521 42.948 21.8809 42.1117 22.1771C41.2754 22.5014 40.655 22.2585 40.1963 22.3122C39.0638 22.474 38.6591 23.1489 37.8228 23.0675C36.8244 22.9864 36.3391 22.42 35.2603 22.1228C34.2348 21.7992 32.266 21.5023 31.807 21.3405C31.322 21.1514 29.191 20.6387 28.6783 20.585C28.1119 20.5039 27.842 20.6657 27.5995 20.6657C27.3293 20.6657 26.9787 20.5039 26.6011 20.4769C26.2502 20.4229 25.6838 20.3962 25.4416 20.4769C25.2267 20.5856 25.146 20.5856 24.8491 20.5046C24.6066 20.4775 23.7162 20.3158 23.3386 20.3698C22.7989 20.3968 22.5831 20.7474 22.1787 20.8014C21.8011 20.8285 21.4235 20.6393 20.9922 20.7204C20.5608 20.8014 20.2099 20.9632 19.8323 21.071C19.4817 21.2061 18.8342 21.125 18.5377 21.1517C17.7284 21.3409 17.6203 21.7455 17.3238 21.7455C17.0539 21.7455 16.0832 21.5837 15.7863 21.7455C15.4624 21.8806 15.1928 22.1231 14.95 22.1501C14.6534 22.1768 13.5743 22.3393 12.8998 22.2582C12.5222 22.2312 11.8747 22.5551 11.6051 22.6358C11.2816 22.7169 10.526 22.7169 10.3102 22.3393C10.0943 21.8806 10.6878 21.2061 11.6862 20.3965C12.3604 19.8835 16.1639 17.2122 22.3409 16.2141C27.1695 15.4048 32.8067 13.381 33.9939 12.1397C34.5066 11.627 36.5835 9.87306 37.0956 8.79393C37.6083 7.71447 37.7698 7.09401 37.5002 7.12103C37.2307 7.20208 36.9071 7.76851 36.3944 7.95732C35.9087 8.11911 35.477 7.84956 35.0998 8.01135C34.7492 8.11911 34.3445 8.68585 33.9672 8.71287C33.5626 8.76659 33.4005 8.41599 33.1033 8.55076C32.8067 8.76659 32.3217 9.11783 31.9974 9.19824C31.3233 9.30632 31.2962 8.52406 30.6758 8.84764C30.0283 9.17122 29.5699 9.71127 28.9228 9.84605C28.329 9.9271 28.4098 9.46843 28.0054 9.46843C27.3576 9.46843 26.7378 10.3591 26.4409 10.3591C26.1444 10.3591 25.9012 9.87306 25.5239 9.92742C25.173 9.95412 24.0672 10.7907 23.6355 10.9258C23.1768 11.0069 23.0961 10.3054 22.7181 10.3594C22.2598 10.3864 21.4235 11.196 20.9648 11.3041C20.4795 11.3848 20.2096 11.0612 19.886 11.0612C19.5624 11.0612 18.5644 11.8979 18.0787 12.0326C17.3775 12.1944 17.3234 11.3044 16.5682 11.3581C16.0288 11.3851 15.462 12.114 15.031 12.1407C14.572 12.1944 14.3832 11.8438 13.8708 11.9519C13.3044 12.1137 12.1986 12.8689 11.8206 12.9503C11.47 13.0313 11.2002 12.8155 10.7685 12.9503C9.95925 13.1931 9.20434 14.2726 8.69131 14.5425C8.12521 14.866 7.72057 14.7042 7.42369 14.8931C6.88428 15.2707 6.80322 16.0262 6.29051 16.2424C5.83248 16.4852 5.85918 16.1343 5.4272 16.4038C4.69931 16.9433 4.96917 17.5373 4.75335 17.8072C4.53752 18.0768 3.94375 18.2926 3.59315 18.7246C3.24223 19.1292 3.24223 19.3724 3.10746 19.6422C2.94599 19.9121 2.32553 20.7214 2.19044 21.0723C2.11003 21.4219 2.27149 21.7995 2.11003 22.0694C2.00227 22.3122 1.75943 22.7172 1.62466 23.0138C1.40883 23.7156 1.70571 24.4171 1.67869 24.687C1.62466 24.9295 1.35479 25.3345 1.35479 25.6584C1.35479 25.9823 1.67869 26.6027 1.59764 27.0881C1.5169 27.5741 0.518822 30.7848 1.08525 32.2419C1.70571 33.7527 2.62274 34.5626 2.94632 34.4275C3.29691 34.3194 3.08109 33.6716 3.43169 33.0788C3.78228 32.5114 4.18692 31.8106 4.51082 32.2959C4.78037 32.7546 3.86334 32.7546 3.78228 34.0769C3.67453 35.3445 3.836 34.8051 3.78228 35.1831C3.75527 35.5877 2.94599 36.3433 2.94599 36.6939C2.94599 37.0715 3.02705 38.0162 4.21362 39.0146C4.94216 39.6617 5.10395 40.0937 5.29243 40.1207C5.45422 40.1748 5.61633 39.3648 5.96693 39.2027C6.45262 38.9866 7.50442 39.9316 7.69323 39.9046C7.93607 39.8235 8.01681 38.5282 8.44846 38.2857C8.88044 38.0966 9.93256 38.9335 10.1484 38.8254C10.3639 38.6633 10.121 37.8537 10.2291 37.5302C10.3639 37.2336 10.9573 37.1525 10.7685 36.6128C10.6067 36.0731 10.5257 35.021 8.6109 34.8859C8.04415 34.8318 7.26222 34.7514 7.77461 34.1576C8.36805 33.5639 9.01521 31.3783 7.61249 29.6787C7.01937 28.9498 5.67037 29.3544 5.29275 29.5166C4.61858 29.7594 3.94407 30.6501 3.67453 30.4072C3.43169 30.1644 4.21394 29.166 5.42753 28.815C6.61441 28.4371 8.12521 28.5185 8.71865 30.0023C9.77045 32.5922 8.71865 33.8067 8.85374 34.0766C9.01521 34.3461 9.60866 34.0496 10.4449 34.5623C11.6318 35.3445 11.47 36.019 11.7666 36.2622C12.0361 36.4777 13.4659 36.5858 14.7879 36.6668C16.1365 36.7479 17.62 37.0985 18.2405 36.7479C19.2385 36.2352 19.3193 34.3191 21.639 32.9158C22.7989 32.2146 24.3364 31.513 26.0627 31.8099C27.9781 32.0795 28.0051 32.3497 27.843 32.5922C27.816 32.7273 27.7626 32.9158 27.7352 32.8894C26.8179 32.4037 25.4966 32.3497 24.687 32.5111C23.5001 32.7273 21.4769 33.0515 19.9935 35.6414C18.5367 38.2317 20.8835 38.2587 21.1263 38.3397C21.3962 38.4478 21.8278 38.5823 21.8008 39.3381C21.7468 40.094 21.9896 40.5254 22.2595 41.011C22.5831 41.4427 23.0958 41.7933 23.0958 41.7933C23.0958 41.7933 23.4731 40.93 23.905 40.7412C24.3367 40.4987 24.8491 40.9303 25.0919 41.2005C25.8472 42.1719 25.5239 40.3636 26.063 40.1751C26.8456 39.9319 27.1418 41.0924 27.5738 40.8763C28.356 40.5257 27.9244 39.986 28.4911 39.7701C29.0843 39.608 29.4352 40.0943 29.6777 39.9322C29.9472 39.7431 29.9205 38.0708 29.4078 37.396C28.8414 36.6942 28.0054 35.507 26.2248 35.507C24.4715 35.507 23.905 35.2644 23.9858 34.9132C24.0668 34.5626 24.4174 34.3194 24.8491 34.4816C25.5239 34.7241 25.6043 34.67 26.6831 34.7241C28.2476 34.7517 27.897 35.4259 29.192 35.9923C30.1634 36.397 31.431 35.7222 32.9955 35.9923C34.5867 36.2625 35.9087 36.5591 37.3648 36.478C40.1172 36.397 43.1651 35.1834 43.7582 35.1023C44.379 34.9943 44.7026 35.0753 44.7026 34.8862C44.7026 34.7241 42.032 34.3194 42.1934 33.672C42.4096 33.0518 43.6772 33.5645 45.4305 33.9692C47.1838 34.3468 50.933 34.6704 52.3901 34.5899C53.9549 34.5629 56.6249 35.2648 58.8099 34.7521C59.916 34.4819 60.9678 33.8071 61.0759 33.0521C61.211 32.2956 60.2126 31.7292 59.9971 31.5671ZM44.9448 22.3122C45.3765 22.2312 46.132 22.42 45.9432 22.9057C45.7811 23.3917 45.7007 23.3103 45.3495 23.3917C44.9989 23.4721 44.2706 23.5532 44.0818 23.2293C43.9197 22.9057 44.4594 22.42 44.9448 22.3122ZM33.9669 9.87306C34.2364 10.0082 34.2635 10.3861 34.2364 10.6289C34.1554 10.8448 34.0209 11.0606 33.8858 11.0606C33.6697 11.0606 33.6697 10.7637 33.5893 10.4668C33.5076 10.224 33.6697 9.71127 33.9669 9.87306ZM31.4854 10.6286C32.0515 10.7634 31.836 11.2764 31.7279 11.8699C31.6468 12.2745 31.2962 12.3826 31.2422 12.4633C31.0534 12.8142 30.9997 11.2764 30.9997 11.2764C30.9997 11.2764 31.1615 10.5476 31.4854 10.6286ZM28.7337 11.0606C28.9495 11.0336 29.3274 11.8702 29.1113 12.5987C28.8687 13.3002 28.5719 13.3002 28.5719 13.3002C28.5719 13.3002 28.4911 12.5177 28.4098 12.4366C28.329 12.3015 28.1672 11.1954 28.7337 11.0606ZM26.2518 11.4652C26.7648 11.2764 26.8999 12.4366 26.6568 13.0304C26.4409 13.6508 26.4409 14.0288 26.063 13.7856C25.6043 13.5698 25.9823 12.8146 25.8472 12.5987C25.6854 12.2205 25.8205 11.6811 26.2518 11.4652ZM23.5004 12.113C24.1479 12.032 24.0668 13.0571 23.905 13.6241C23.7162 14.1365 23.5815 14.3794 23.3119 14.2986C23.015 14.1906 23.3927 13.5158 23.2309 13.2192C23.015 12.9493 23.1498 12.1397 23.5004 12.113ZM20.6683 12.6254C21.0459 12.7062 21.3158 13.2729 21.1269 14.0555C20.9652 14.8651 20.7223 15.0539 20.5065 15.0539C20.2907 15.0539 20.5872 13.7856 20.3984 13.7856C20.2366 13.7856 20.2099 12.5444 20.6683 12.6254ZM17.8899 13.5698C18.1327 13.5698 18.6721 14.0285 18.4022 14.8651C18.1327 15.7284 18.1327 15.6476 17.8899 15.7284C17.62 15.7824 17.8091 15.2157 17.647 14.8921C17.4582 14.6219 17.2154 13.5428 17.8899 13.5698ZM15.3813 14.4604C15.867 14.4334 16.0558 15.4588 15.9477 15.8902C15.867 16.3218 15.7049 16.8619 15.4083 16.7808C15.1385 16.7271 15.462 15.9445 15.2195 15.9445C15.0307 15.9442 14.6531 14.4875 15.3813 14.4604ZM13.7898 17.4013C13.4662 17.9951 13.4929 17.9951 13.2774 17.9951C13.0616 17.9951 13.1963 17.1317 12.9538 17.1317C12.738 17.1317 12.5492 15.8635 13.2234 15.8094C13.9516 15.7824 13.9786 16.9696 13.7898 17.4013ZM12.711 13.354C12.8728 13.354 13.2774 13.6238 12.8998 14.0285C12.5492 14.4331 12.5222 14.703 12.1986 14.5412C11.8747 14.4334 12.1983 13.381 12.711 13.354ZM3.53944 21.8806C3.75494 21.8806 4.02513 22.42 3.99811 22.6361C3.94407 22.7979 3.91738 23.0678 3.59348 23.1489C3.29691 23.2293 3.18916 22.7442 3.18916 22.6632C3.16214 22.5554 3.08109 21.8265 3.53944 21.8806ZM3.86334 25.4149C3.70155 25.4149 3.51242 25.4149 3.37765 25.3074C3.29659 25.1724 2.75719 24.6329 3.16182 24.0929C3.18884 24.0122 3.86334 24.4708 3.99811 24.7677C4.07917 24.9832 4.07917 25.4149 3.86334 25.4149ZM4.42944 20.9089C4.34839 21.0437 4.13288 21.1247 3.99811 21.0437C3.78228 20.9089 3.78228 20.4772 3.86334 20.3965C3.91706 20.3695 3.94407 19.7217 4.37541 19.8024C4.59123 19.8294 4.34839 20.3692 4.37541 20.4232C4.42944 20.5046 4.53752 20.8011 4.42944 20.9089ZM22.3946 23.6612C22.4216 23.4724 22.7182 23.3106 23.015 23.3917C23.3927 23.4184 23.8243 23.7423 23.7436 23.9851C23.7166 24.228 23.3119 24.4168 22.9073 24.228C22.5564 24.0659 22.3138 23.9041 22.3946 23.6612ZM22.934 25.4149C23.1768 25.3882 23.8243 25.3345 23.7703 25.6851C23.7436 26.0086 23.5815 26.0897 23.0691 26.1708C22.5564 26.2512 22.2328 25.9279 22.2328 25.7661C22.2598 25.4963 22.6644 25.4692 22.934 25.4149ZM21.5853 21.7188C21.8819 21.7188 22.1517 21.9613 22.0707 22.1501C21.9899 22.3393 21.9629 22.5818 21.4235 22.474C21.2347 22.393 20.9919 22.1231 20.9919 21.9613C20.9922 21.6377 21.3158 21.6648 21.5853 21.7188ZM18.6721 22.393C18.7258 22.1231 19.2385 22.0694 19.4814 22.1771C19.7512 22.3122 19.913 22.6632 19.7512 22.825C19.5624 22.96 19.3736 22.906 19.0497 22.825C18.7261 22.7439 18.6454 22.6628 18.6721 22.393ZM18.3215 23.6345C18.7261 23.6345 19.2115 23.9311 18.9957 24.1469C18.8339 24.3087 18.6721 24.4168 18.2405 24.4168C17.8088 24.4168 17.647 24.255 17.647 24.0122C17.647 23.7963 17.9169 23.5805 18.3215 23.6345ZM17.62 25.4149C18.0787 25.3345 18.4022 25.604 18.3756 25.8469C18.3756 26.0897 17.9709 26.3055 17.7011 26.3055C17.3775 26.3055 16.9188 26.2245 16.8648 25.8469C16.811 25.5233 17.3775 25.4692 17.62 25.4149ZM16.3794 27.5738C16.2987 27.3309 16.8648 27.2229 17.1346 27.1688C17.3775 27.1418 17.8899 27.2499 17.8091 27.4927C17.7284 27.6815 17.5663 27.9244 17.1346 27.9244C16.703 27.8977 16.4601 27.7626 16.3794 27.5738ZM17.0536 29.0846C16.9728 29.4355 16.6493 29.4892 16.4064 29.5162C16.1365 29.5703 15.7049 29.5162 15.7049 29.2467C15.7049 28.9498 16.0828 28.734 16.2987 28.6529C16.7303 28.5725 17.1346 28.8147 17.0536 29.0846ZM15.867 22.474C16.0285 22.501 16.5412 22.6358 16.5682 22.8787C16.5682 23.0675 16.703 23.3373 16.1365 23.3373C15.6242 23.3373 15.4083 23.2563 15.3003 22.9864C15.1385 22.6628 15.7049 22.42 15.867 22.474ZM15.7859 24.3898C16.3254 24.4979 16.4064 24.4979 16.4601 24.7404C16.4871 24.9832 16.0828 25.145 15.6238 25.2261C15.1381 25.3071 14.8686 25.0913 14.7335 24.8485C14.6531 24.6329 15.2465 24.3087 15.7859 24.3898ZM14.8689 26.6024C15.1385 26.5754 15.462 26.6831 15.462 26.9803C15.4083 27.2229 15.2465 27.3309 14.9767 27.439C14.7338 27.5738 14.1944 27.358 14.1134 27.1692C14.0323 26.9804 14.572 26.6564 14.8689 26.6024ZM14.3829 28.8417C14.3829 29.0846 13.8975 29.2734 13.6547 29.3274C13.4659 29.3544 13.3041 29.5162 13.1423 29.3544C12.9535 29.1927 12.9805 29.0305 13.1153 28.9228C13.196 28.8147 13.7087 28.5722 13.8168 28.5182C14.0323 28.4371 14.4102 28.6529 14.3829 28.8417ZM13.2774 23.0945C13.7091 23.0945 13.8979 23.3373 13.9789 23.5532C14.0326 23.742 13.9789 23.8497 13.8708 23.9308C13.7901 24.0118 13.3044 23.9848 13.0346 23.823C12.6569 23.6345 12.7917 23.0945 13.2774 23.0945ZM11.1194 17.1317C11.7129 17.0777 11.8206 17.8873 11.6859 18.6158C11.47 19.317 11.389 19.317 11.1194 19.2366C10.8766 19.1556 11.1194 18.7506 10.9573 18.5618C10.7685 18.4 10.4449 17.1584 11.1194 17.1317ZM10.6875 14.1095C11.2272 14.0288 11.0384 14.7033 10.9303 14.8921C10.7685 15.1349 10.9573 15.4855 10.6067 15.4585C10.2291 15.4048 10.2832 14.9458 10.2291 14.703C10.2021 14.4334 10.3642 14.1362 10.6875 14.1095ZM8.77269 16.538C8.88044 16.3762 8.9615 15.9716 9.31209 15.9445C9.55462 15.8905 9.47388 16.565 9.44687 16.8889C9.44687 17.2125 9.52792 17.6174 9.09627 17.4556C8.63759 17.2935 8.63759 16.7268 8.77269 16.538ZM7.10011 16.6187C7.18084 16.6187 7.18084 16.5647 7.18084 16.5647C7.18084 16.5647 7.55846 15.9442 7.93607 16.133C8.09787 16.16 7.69323 16.9423 7.63951 17.0777C7.55878 17.2935 7.28891 17.4553 7.04607 17.2395C6.80354 16.9966 7.01937 16.6187 7.10011 16.6187ZM5.96725 18.0488C6.18308 18.1298 5.96725 18.8313 5.8862 19.1549C5.8595 19.4788 5.61666 19.6406 5.37381 19.5596C5.13096 19.5329 5.26606 18.9658 5.18468 18.9658C5.13096 18.9124 5.45454 17.968 5.96725 18.0488ZM5.18468 23.4187C5.34679 23.4724 5.37381 23.7963 5.37381 23.8501C5.37381 23.9851 5.5356 24.0659 5.61666 24.3087C5.67037 24.4979 5.5356 24.6867 5.34711 24.7404C5.13129 24.7404 4.94248 24.3357 4.94248 24.3357C4.94248 24.3898 4.78036 23.3917 5.18468 23.4187ZM5.8595 26.7372C5.69739 26.8453 5.5089 26.926 5.26606 26.899C5.02321 26.8182 4.75367 26.4136 4.9695 26.1708C5.18468 25.9819 5.5089 26.1437 5.67037 26.2512C5.83248 26.3869 6.02129 26.6024 5.8595 26.7372ZM5.94024 22.1771C5.61666 22.1231 5.75143 21.5026 5.69739 21.5026C5.69739 21.5026 6.02129 20.3968 6.34487 20.5856C6.58772 20.7474 6.45295 21.476 6.42593 21.8265C6.37189 22.1501 6.2101 22.2585 5.94024 22.1771ZM6.53336 24.228C6.42593 24.174 6.29051 23.4721 6.7762 23.4184C6.96501 23.4184 7.28891 23.796 7.28891 24.0118C7.2619 24.2547 7.34263 24.5786 6.88428 24.5512C6.45295 24.4979 6.61441 24.255 6.53336 24.228ZM7.69355 27.6819C7.53208 27.6819 7.20786 27.6552 7.01937 27.358C6.85758 27.1421 6.80354 26.7645 7.01937 26.6564C7.18116 26.5754 7.61249 26.8453 7.80162 27.2229C8.01713 27.5738 7.80163 27.6819 7.69355 27.6819ZM8.25998 26.3325C8.04415 26.3058 7.80162 26.2245 7.61249 25.9819C7.42401 25.7661 7.42401 25.3074 7.72057 25.2534C8.17892 25.1724 8.44846 25.5773 8.6109 25.9279C8.71865 26.3055 8.39507 26.3325 8.25998 26.3325ZM8.69131 24.4168C8.47548 24.4168 8.36805 24.3357 8.25998 24.174C8.09819 24.0659 8.04415 23.5805 8.47548 23.5805C8.69131 23.5805 9.01521 23.7423 9.04191 23.9851C9.09627 24.255 8.88044 24.3898 8.69131 24.4168ZM9.09627 18.9661C9.39283 18.9661 9.93288 19.29 9.77045 20.2344C9.55462 21.1517 9.44687 20.8281 9.25806 20.8819C9.09627 20.9629 9.20434 20.3695 9.09627 20.2344C8.88044 19.9915 8.36805 18.9661 9.09627 18.9661ZM9.63567 27.8437C9.44687 27.7626 9.20434 27.6549 9.177 27.358C9.09627 27.0881 9.39283 27.0074 9.63567 27.0614C9.93256 27.0881 10.1484 27.3309 10.1484 27.5201C10.1484 27.7626 9.79746 27.8977 9.63567 27.8437ZM10.1484 25.9819C10.0133 26.0086 9.93256 26.0897 9.63567 26.0086C9.36613 25.9009 8.79938 25.3074 9.31209 24.9832C9.47388 24.8485 10.0943 25.0102 10.2294 25.4689C10.4449 25.8469 10.3099 25.9009 10.1484 25.9819ZM10.2021 24.1469C10.121 24.0659 10.2828 23.6345 10.7145 23.7423C11.1194 23.8234 11.2272 24.0929 11.2002 24.3357C11.1194 24.5786 10.8496 24.5786 10.6334 24.5516C10.4449 24.4979 10.3099 24.228 10.2021 24.1469ZM11.8206 28.8417C11.6859 28.9228 11.389 29.0038 10.9844 28.9498C10.6334 28.9228 10.5527 28.8147 10.6875 28.5992C10.8496 28.4101 10.9573 28.3564 11.2812 28.2483C11.6048 28.1135 11.9828 28.275 12.0638 28.4101C12.1442 28.5182 11.9824 28.8147 11.8206 28.8417ZM12.36 27.0878C12.1442 27.2229 11.6859 27.0878 11.5508 26.7642C11.443 26.4136 11.6318 26.3322 11.7936 26.2512C11.9824 26.2241 12.4408 26.4403 12.5222 26.7372C12.5492 26.926 12.5492 26.9803 12.36 27.0878ZM12.7917 25.5233C12.6029 25.5233 11.9014 25.4149 12.0365 25.0643C12.1172 24.6867 12.5222 24.6867 12.738 24.7404C12.8728 24.7404 13.4392 24.9292 13.3044 25.2531C13.2234 25.604 12.9805 25.4963 12.7917 25.5233ZM18.9957 31.891C18.9957 32.0795 18.8879 32.2146 18.7262 32.2146C18.5373 32.2146 17.9979 32.0795 17.7281 32.2956C17.4582 32.4841 17.2964 32.8353 17.3234 33.0785C17.3775 33.267 17.3775 33.5642 17.2427 33.6446C17.1349 33.7527 16.6222 33.5642 16.4064 33.5906C16.2176 33.5906 15.5431 33.7527 15.3813 34.1039C15.1925 34.4275 15.3276 34.67 15.2195 34.7517C15.1118 34.8862 14.9497 34.9402 14.7879 34.9402C14.6261 34.9943 13.8975 34.8862 13.7898 34.9943C13.628 35.1023 13.2234 35.588 13.1153 35.4259C12.9805 35.2644 12.7917 35.3449 13.1423 34.7517C13.3041 34.4816 13.7357 34.185 13.7898 34.185C13.8168 34.185 14.3562 34.2384 14.4643 34.158C14.572 34.0499 14.8959 33.4021 15.031 33.267C15.5704 32.8353 15.5434 32.9975 15.7052 32.9158C15.8673 32.8894 16.4067 32.9975 16.4604 32.8894C16.5415 32.7273 16.8651 32.1335 17.1349 31.891C17.4855 31.5668 18.0523 31.5127 18.133 31.4587C18.1597 31.3783 18.2948 31.1621 18.3759 31C18.4836 30.8382 18.9693 30.4336 19.2929 30.5146C19.4547 30.5684 18.8883 31.3242 18.8883 31.4857C18.8339 31.6481 18.9957 31.6752 18.9957 31.891ZM19.4003 29.5976C18.9957 29.6787 18.564 29.6517 18.537 29.4358C18.483 29.2737 18.6181 29.0309 18.8876 28.9231C19.1305 28.815 19.373 28.8961 19.5618 28.8961C19.7236 28.8961 20.1285 28.8961 20.0745 29.0309C20.0478 29.1656 19.805 29.5166 19.4003 29.5976ZM19.9671 27.7626C19.5084 27.8166 19.0771 27.6819 19.1308 27.4931C19.2115 27.2772 19.4814 27.0881 19.886 27.0881C20.2907 27.0614 20.5605 27.1692 20.5605 27.358C20.5605 27.5201 20.3984 27.7359 19.9671 27.7626ZM20.8841 25.5773C20.8034 25.9009 20.6413 25.9819 20.3447 26.0086C20.0478 26.0086 19.4544 25.9279 19.4544 25.4692C19.4544 25.2534 20.0748 25.1453 20.2096 25.1453C20.3447 25.0913 20.9111 25.2534 20.8841 25.5773ZM21.3158 23.8501C21.262 24.0929 20.9111 24.3087 20.6413 24.228C20.3447 24.1469 19.9671 24.0929 19.9941 23.8234C19.9941 23.6612 20.2366 23.4187 20.6683 23.4724C21.1269 23.4724 21.3428 23.6612 21.3158 23.8501ZM22.7452 29.0846C22.6374 29.1927 22.5023 29.4892 22.1787 29.5703C21.8822 29.5973 21.5042 29.7321 21.3425 29.3544C21.2617 29.1656 21.3965 29.0038 21.639 28.8417C21.8278 28.734 22.4753 28.734 22.4753 28.734C22.4753 28.734 22.556 28.5182 22.7178 28.6529C22.8799 28.761 22.8799 28.9498 22.7452 29.0846ZM23.5004 27.6548C23.2305 27.6548 22.5831 27.6815 22.556 27.358C22.4753 27.2232 22.907 27.0614 23.1765 26.9803C23.5001 26.8993 23.7159 26.8993 23.824 26.9263C23.9317 26.9803 24.2286 27.0881 24.2286 27.2232C24.2289 27.358 23.7436 27.6008 23.5004 27.6548ZM23.8513 22.2585C23.7436 21.9883 23.7166 21.7455 23.8243 21.6377C24.0131 21.5026 24.6606 21.7455 24.7683 22.0424C24.9305 22.3122 24.9305 22.6361 24.6606 22.7172C24.3907 22.7439 23.9321 22.5014 23.8513 22.2585ZM24.8221 23.8234C24.768 23.5805 25.2537 23.3917 25.5776 23.4187C25.8472 23.4724 26.3332 23.7423 26.2518 24.0122C26.1444 24.3087 26.0903 24.3898 25.8472 24.3898C25.6043 24.3898 24.8491 24.228 24.8221 23.8234ZM25.0649 25.7388C25.0109 25.5233 25.4969 25.4149 25.6854 25.4149C25.8472 25.4149 26.576 25.5233 26.3602 25.8198C26.2251 26.0897 25.9282 26.2245 25.6854 26.2245C25.4969 26.2245 25.146 25.9279 25.0649 25.7388ZM26.5217 28.0054C26.2518 28.1943 26.063 28.1943 25.7394 28.1943C25.4429 28.1943 25.3885 28.0054 25.3885 27.7626C25.3885 27.5738 25.6854 27.439 25.8205 27.412C25.9823 27.358 26.1711 27.412 26.3332 27.358C26.4409 27.3309 26.4409 27.3309 26.6027 27.2772C26.7378 27.2502 26.8185 27.2232 26.8456 27.439C26.8996 27.6549 26.8182 27.8437 26.5217 28.0054ZM27.0611 22.5554C26.926 22.6361 26.926 22.7172 26.6564 22.6632C26.3329 22.6361 26.1707 22.1505 26.09 22.1231C25.9819 22.0694 25.7391 21.7995 25.8468 21.6648C25.9819 21.5567 26.5757 21.5567 26.8452 21.7995C27.1691 22.0694 27.1691 22.474 27.0611 22.5554ZM27.6545 23.6612C27.7356 23.5805 27.9244 23.4724 28.1672 23.4724C28.4098 23.4724 28.7337 23.6345 28.8417 23.7963C28.9228 23.9851 28.9228 24.1469 28.7607 24.3087C28.6526 24.4168 27.9244 24.228 27.8163 24.0929C27.6545 23.9311 27.6008 23.7963 27.6545 23.6612ZM27.8433 26.0897C27.7629 26.1708 27.7356 25.9009 27.8433 25.7661C28.0054 25.658 28.356 25.4692 28.5719 25.4692C28.7607 25.4692 29.0842 25.5233 29.0309 25.6851C29.0035 25.8469 28.9495 26.2515 28.5181 26.2515C28.0862 26.3055 27.9244 26.0627 27.8433 26.0897ZM28.6796 28.0865C28.329 28.1135 28.0862 28.0595 28.0325 27.7626C28.0054 27.4931 28.2753 27.412 28.329 27.412C28.356 27.412 28.6526 27.358 28.7337 27.3309C28.9228 27.3309 29.246 27.0881 29.4082 27.3309C29.4886 27.4931 29.0305 28.0054 28.6796 28.0865ZM29.8395 22.6361C29.7854 22.7442 29.6777 23.0678 29.2727 22.96C28.8684 22.825 28.6793 22.6361 28.5715 22.4744C28.4908 22.3126 28.1936 22.0697 28.4368 21.8269C28.5715 21.7191 29.192 21.9616 29.4886 22.1775C29.7317 22.42 29.8665 22.474 29.8395 22.6361ZM30.1094 23.7963C30.1904 23.6345 30.514 23.5535 30.7572 23.5535C30.9997 23.5805 31.3233 23.6612 31.3767 23.9311C31.4313 24.174 31.3767 24.255 31.2962 24.3898C31.1618 24.4979 30.6758 24.3357 30.487 24.255C30.2711 24.174 30.0283 23.9041 30.1094 23.7963ZM30.1634 25.658C30.1634 25.4692 30.4333 25.4963 30.568 25.4692C30.6221 25.4152 30.7028 25.3345 30.9186 25.3074C31.0804 25.2534 31.4313 25.2534 31.4313 25.4149C31.4854 25.5233 31.4313 25.7661 30.9997 25.9009C30.514 26.0627 30.1904 25.8469 30.1634 25.658ZM31.7279 27.439C31.7279 27.439 31.3767 27.7626 31.2962 27.8977C31.1618 27.9784 30.9456 28.1943 30.6221 27.9247C30.4333 27.7359 30.6221 27.412 30.7572 27.3309C30.8649 27.2232 31.6739 26.7375 31.836 26.9803C31.9704 27.2229 31.7279 27.439 31.7279 27.439ZM32.2126 22.6628C32.0512 22.9057 31.808 22.8787 31.5121 22.8246C31.2419 22.7976 30.7568 22.474 30.7835 22.1501C30.8376 21.8806 31.3229 21.9613 31.5925 22.0694C31.89 22.1771 32.4018 22.42 32.2126 22.6628ZM35.423 26.3869C35.2615 26.3869 34.8569 25.9819 35.5041 25.9009C35.7472 25.8469 35.7743 26.0086 35.7743 26.2515C35.7743 26.4406 35.5581 26.3869 35.423 26.3869ZM35.7743 24.4979C35.5041 24.4168 35.396 24.3087 35.5581 24.0929C35.7472 23.9311 35.8276 23.9851 36.0702 24.0659C36.2593 24.1469 36.3133 24.3087 36.2593 24.4708C36.2323 24.66 36.0702 24.5789 35.7743 24.4979ZM37.3114 30.3262C36.9332 30.2451 36.5832 29.7864 36.3941 29.5166C36.232 29.193 36.1786 28.5992 36.313 28.3297C36.4211 28.0058 36.5832 27.9788 36.7447 28.0868C36.9332 28.1946 36.8257 29.0045 36.9332 29.0312C37.0682 29.1122 37.1493 29.6793 37.4999 29.76C37.608 29.76 37.7431 30.0299 37.7431 30.0299C37.7431 30.0299 37.608 30.4069 37.3114 30.3262Z" fill="black"/>
<path fill-rule="evenodd" clip-rule="evenodd" d="M31.1747 54.8796C33.983 54.8796 36.259 52.3913 36.259 49.3212C36.259 46.2517 33.983 43.7634 31.1747 43.7634C28.3667 43.7634 26.09 46.2517 26.09 49.3212C26.0903 52.3913 28.3667 54.8796 31.1747 54.8796ZM31.1747 52.4013C29.8186 52.4013 29.0929 51.0224 29.0929 49.3212C29.0929 47.62 29.7395 46.2411 31.1747 46.2411C32.6095 46.2411 33.2567 47.62 33.2567 49.3212C33.2567 51.0224 32.5307 52.4013 31.1747 52.4013ZM8.82672 54.6226H10.1265C10.2995 54.6243 10.4679 54.5674 10.6044 54.4611C10.7408 54.3548 10.8373 54.2053 10.8779 54.0372L11.1577 52.932C11.2018 52.7567 11.353 52.6393 11.5334 52.6393H13.9686C14.1491 52.6393 14.3002 52.7567 14.3443 52.932L14.6238 54.0372C14.6645 54.2053 14.7609 54.3547 14.8974 54.461C15.0338 54.5673 15.2022 54.6243 15.3752 54.6226H16.675C16.7958 54.6226 16.9149 54.5943 17.0229 54.5401C17.1308 54.4858 17.2246 54.4071 17.2967 54.3102C17.3689 54.2132 17.4173 54.1008 17.4383 53.9818C17.4592 53.8628 17.452 53.7406 17.4174 53.6249L14.6885 44.5025C14.6423 44.3418 14.5447 44.2007 14.4106 44.1008C14.2765 44.001 14.1133 43.9478 13.9461 43.9496H11.5559C11.2073 43.9496 10.9133 44.1683 10.8136 44.5025L8.08468 53.6249C8.04992 53.7406 8.04271 53.8628 8.0636 53.9818C8.0845 54.1008 8.13293 54.2132 8.20502 54.3102C8.27712 54.4071 8.37089 54.4858 8.47883 54.5401C8.58678 54.5943 8.70591 54.6226 8.82672 54.6226ZM13.4874 50.4701H12.0143C11.9866 50.4697 11.9594 50.4631 11.9347 50.4508C11.9099 50.4384 11.8882 50.4207 11.8712 50.3989C11.8543 50.377 11.8424 50.3517 11.8365 50.3246C11.8307 50.2976 11.831 50.2696 11.8374 50.2427L12.6692 46.9525C12.6885 46.8773 12.8129 46.8773 12.8319 46.9525L13.664 50.2427C13.6704 50.2696 13.6707 50.2976 13.6649 50.3246C13.659 50.3516 13.6472 50.3769 13.6302 50.3987C13.6133 50.4206 13.5917 50.4383 13.567 50.4507C13.5422 50.463 13.5151 50.4697 13.4874 50.4701ZM17.4161 49.3218C17.4161 52.3913 19.6927 54.8796 22.5007 54.8796C23.841 54.8796 25.0601 54.3129 25.9681 53.3862C26.128 53.2234 26.1241 52.9597 25.97 52.7911L24.9488 51.676C24.7445 51.4537 24.4306 51.5177 24.2129 51.7268C23.7159 52.2054 23.3225 52.4016 22.5004 52.4016C21.0652 52.4016 20.4187 51.0227 20.4187 49.3215V49.3209C20.4187 47.6196 21.0652 46.2407 22.5004 46.2407C23.3225 46.2407 23.7159 46.4366 24.2129 46.9156C24.4306 47.1246 24.7445 47.189 24.9488 46.9664L25.97 45.8512C26.1241 45.6836 26.128 45.4189 25.9681 45.2562C25.0601 44.3295 23.8407 43.7627 22.5007 43.7627C19.6927 43.7627 17.4161 46.251 17.4161 49.3205V49.3218ZM41.9139 51.5727C41.9139 52.2109 41.4125 52.5589 40.7309 52.5589C39.8708 52.5589 39.3143 52.0449 38.7991 51.5174C38.5263 51.2385 38.0696 51.2479 37.7813 51.5106L37.1426 52.0925C36.8933 52.3199 36.7054 52.7014 36.9177 52.9632C37.6077 53.8169 38.6373 54.7863 41.1204 54.7863C43.3243 54.7863 44.7013 53.2498 44.7013 51.5936C44.7013 50.2424 44.1304 49.3485 42.5164 48.5235L40.8454 47.73C40.1349 47.5408 39.8322 47.2838 39.8322 46.8197C39.8322 46.3266 40.1776 46.0249 40.7437 46.0249C41.4096 46.0249 41.9712 46.4382 42.4771 46.8441C42.7737 47.0822 43.2102 47.0262 43.4684 46.7467L44.1362 46.0236C44.3681 45.7724 44.454 45.3546 44.2086 45.1159C43.4038 44.3343 42.2008 43.7476 40.5549 43.7476C38.2262 43.7476 36.8534 45.1918 36.8534 46.9471C36.8534 48.4267 37.5726 49.1954 39.1352 49.9079L41.0551 50.729C41.663 50.9175 41.9139 51.1517 41.9139 51.5727ZM59.3377 48.0246H57.4435C57.3926 48.0246 57.3422 48.0147 57.2951 47.9952C57.2481 47.9757 57.2053 47.9472 57.1693 47.9112C57.1333 47.8752 57.1048 47.8324 57.0853 47.7854C57.0659 47.7383 57.0559 47.6879 57.0559 47.637V46.8606C57.0559 46.6463 57.2293 46.473 57.4435 46.473H60.2348C60.3366 46.473 60.4374 46.453 60.5315 46.414C60.6256 46.3751 60.711 46.318 60.783 46.246C60.855 46.174 60.9121 46.0886 60.951 45.9945C60.99 45.9004 61.01 45.7996 61.01 45.6978V44.7254C61.01 44.6236 60.99 44.5228 60.951 44.4287C60.9121 44.3347 60.855 44.2492 60.783 44.1772C60.711 44.1052 60.6256 44.0481 60.5315 44.0092C60.4374 43.9702 60.3366 43.9502 60.2348 43.9503H54.8867C54.7849 43.9503 54.6842 43.9703 54.5902 44.0093C54.4961 44.0482 54.4107 44.1054 54.3388 44.1773C54.2669 44.2493 54.2098 44.3348 54.1709 44.4288C54.1321 44.5229 54.1121 44.6237 54.1122 44.7254V53.8478C54.1122 54.0532 54.1938 54.2503 54.339 54.3957C54.4842 54.541 54.6812 54.6228 54.8867 54.6229H60.2348C60.4404 54.6229 60.6375 54.5413 60.7829 54.3959C60.9283 54.2505 61.01 54.0533 61.01 53.8478V52.8748C61.01 52.6692 60.9283 52.472 60.7829 52.3266C60.6375 52.1813 60.4404 52.0996 60.2348 52.0996H57.4435C57.3926 52.0996 57.3422 52.0896 57.2951 52.0702C57.2481 52.0507 57.2053 52.0222 57.1693 51.9862C57.1333 51.9502 57.1048 51.9074 57.0853 51.8604C57.0659 51.8133 57.0559 51.7629 57.0559 51.712V50.9355C57.0559 50.722 57.2293 50.5479 57.4435 50.5479H59.3377C59.4395 50.548 59.5403 50.528 59.6344 50.489C59.7285 50.4501 59.8139 50.393 59.8859 50.321C59.9579 50.249 60.015 50.1635 60.054 50.0695C60.0929 49.9754 60.1129 49.8746 60.1129 49.7728V48.8004C60.113 48.6986 60.093 48.5977 60.0541 48.5036C60.0151 48.4095 59.9581 48.3239 59.8861 48.2519C59.8141 48.1798 59.7286 48.1227 59.6345 48.0837C59.5404 48.0447 59.4396 48.0246 59.3377 48.0246ZM48.446 54.6226H49.84C50.2678 54.6226 50.6152 54.2752 50.6152 53.8474V46.8602C50.6152 46.646 50.7879 46.4726 51.0021 46.4726H52.5676C52.7732 46.4726 52.9704 46.391 53.1157 46.2456C53.2611 46.1002 53.3428 45.9031 53.3428 45.6975V44.7251C53.3428 44.5195 53.2611 44.3224 53.1157 44.177C52.9704 44.0316 52.7732 43.9499 52.5676 43.9499H45.7181C45.6163 43.9499 45.5154 43.9699 45.4214 44.0089C45.3273 44.0478 45.2418 44.1049 45.1698 44.1769C45.0979 44.2489 45.0408 44.3343 45.0018 44.4284C44.9629 44.5225 44.9428 44.6233 44.9429 44.7251V45.6975C44.9428 45.7993 44.9629 45.9001 45.0018 45.9942C45.0408 46.0882 45.0979 46.1737 45.1698 46.2457C45.2418 46.3177 45.3273 46.3748 45.4214 46.4137C45.5154 46.4527 45.6163 46.4727 45.7181 46.4726H47.2829C47.4971 46.4726 47.6705 46.646 47.6705 46.8602V53.8474C47.6707 54.053 47.7525 54.2501 47.8979 54.3954C48.0433 54.5407 48.2404 54.6224 48.446 54.6226ZM6.74372 52.0928H4.66168C4.55888 52.0928 4.4603 52.052 4.38761 51.9793C4.31492 51.9066 4.27409 51.808 4.27409 51.7052V44.7251C4.27409 44.5196 4.19246 44.3225 4.04716 44.1771C3.90185 44.0317 3.70477 43.95 3.49923 43.9499H2.1052C1.89967 43.95 1.70258 44.0317 1.55728 44.1771C1.41197 44.3225 1.33035 44.5196 1.33035 44.7251V53.8468C1.33035 54.2752 1.67773 54.622 2.10617 54.6213L6.13162 54.6175L6.74468 54.6162C6.94999 54.616 7.14683 54.5343 7.29194 54.3891C7.43706 54.2439 7.51857 54.047 7.51857 53.8416V52.868C7.51862 52.7662 7.4986 52.6654 7.45968 52.5714C7.42076 52.4773 7.36369 52.3919 7.29174 52.3199C7.21978 52.2479 7.13435 52.1908 7.04032 52.1518C6.94629 52.1129 6.8455 52.0928 6.74372 52.0928Z" fill="black"/>
</g>
<defs>
<clipPath id="clip0_12_142">
<rect width="62" height="62" fill="white"/>
</clipPath>
</defs>
</svg>
