<svg width="41" height="85" viewBox="0 0 41 85" fill="none" xmlns="http://www.w3.org/2000/svg">
<g clip-path="url(#clip0_14_162)">
<path d="M29.2231 75.2417C29.2967 74.0424 29.2722 73.6467 29.1115 73.4514C28.9895 73.3029 28.9031 72.84 28.8995 72.3148C28.8942 71.5192 28.7884 71.2221 27.8626 69.4078C26.8747 67.4711 26.8393 67.3653 27.0149 66.8755C27.1784 66.4184 27.1552 66.2648 26.7973 65.4319C26.4403 64.6011 26.2797 64.42 25.3235 63.7687C23.4686 62.5054 21.9778 61.2174 19.4952 58.7339C16.7237 55.9604 14.4225 52.9109 12.2886 49.1832C11.5476 47.889 11.4896 47.8352 10.8351 47.8317C10.3437 47.8292 9.75356 47.3966 9.75578 47.0399C9.75637 46.9365 9.15499 45.5996 8.41937 44.0694C6.51029 40.098 6.34703 39.2522 6.9308 36.3605C7.2773 34.646 7.34242 34.4918 8.06502 33.6844C8.83218 32.8278 8.71184 32.5865 7.45536 32.4612C5.77674 32.2934 5.79391 32.304 5.44593 31.217C5.27482 30.6824 5.1348 30.0765 5.1348 29.8707C5.1348 29.1885 5.9024 27.0295 6.95774 24.7433C7.53025 23.5025 8.2644 21.8105 8.58899 20.9833C9.74394 18.0393 11.3373 15.6854 12.6238 15.0229C13.1382 14.7581 14.1379 14.559 17.1128 14.1283C18.7688 13.8886 18.8854 13.7671 19.1233 12.0349C19.2616 11.0275 19.2479 10.8696 18.9865 10.4424C18.7979 10.1347 18.6961 9.69911 18.6961 9.20048C18.6961 8.4993 18.735 8.41222 19.1432 8.1992C19.5378 7.99336 19.5904 7.88775 19.5904 7.30039C19.5904 5.89534 19.8712 5.11305 20.6525 4.34614C20.8391 4.16391 21.0203 3.97611 21.1957 3.78299H10.9634C7.48777 3.78299 4.66989 6.6267 4.66989 10.1345V74.9028C4.66989 78.4105 7.48762 81.2545 10.9634 81.2545H29.6849C29.6217 81.1139 29.4897 80.8863 29.3365 80.6609C28.9105 80.0351 28.9152 80.2548 29.2231 75.2417Z" fill="black"/>
<path d="M30.0825 3.78299H24.663C24.7161 3.84677 24.7928 3.91534 24.886 3.97703C25.5562 4.42009 26.5728 5.48739 26.735 5.91805C26.9791 6.5665 26.9242 7.42781 26.5796 8.35784C26.3815 8.89172 26.2982 9.36943 26.3542 9.65086C26.4595 10.1828 25.9419 11.3104 25.329 11.8841C25.108 12.0908 24.7948 12.5204 24.6331 12.8389C24.4713 13.1572 24.0697 13.7124 23.7411 14.0724C23.4125 14.4324 23.1655 14.842 23.193 14.9826C23.2203 15.1233 23.6113 15.4387 24.062 15.6835C24.513 15.9283 25.1878 16.4087 25.5621 16.7511C25.9362 17.0935 26.6915 17.694 27.2405 18.0855C29.213 19.4928 30.1596 21.8991 30.1693 25.5317C30.1736 27.1414 30.9516 30.9142 31.5089 32.0284C32.2722 33.5545 32.5485 34.3958 32.7874 35.9187C33.0941 37.8757 33.1034 37.8978 33.72 38.1577C34.3093 38.4063 35.8356 39.6567 35.8356 39.8911C35.8356 39.9718 35.9866 40.2511 36.1708 40.5121L36.3766 40.8029V10.1344C36.376 6.62655 33.5583 3.78299 30.0825 3.78299ZM36.2822 46.3133C36.2822 46.3895 35.9503 46.8181 35.5449 47.2659C32.7173 50.3879 27.8779 49.6924 26.1015 45.908C25.6717 44.9921 25.6268 44.762 25.6268 43.468C25.6268 42.2324 25.681 41.9226 26.0262 41.179C26.5781 39.9906 27.6317 38.9019 28.7833 38.3295C29.3073 38.0693 29.767 37.8061 29.8043 37.7445C29.8419 37.6831 29.369 36.6058 28.7532 35.3502C27.3347 32.4575 27.1667 31.9402 26.5232 28.4849C26.232 26.9231 25.964 25.561 25.9268 25.4574C25.8077 25.1245 25.3913 25.2543 24.3616 25.945L23.3542 26.6208L22.4413 28.9545C21.9394 30.2378 21.5283 31.4787 21.5283 31.7116C21.5283 31.9738 21.676 32.2743 21.9151 32.4999C22.5117 33.0626 22.6728 33.4758 23.684 37.0407C24.4291 39.6667 24.5952 40.4339 24.4765 40.6976C24.3623 40.9497 24.4363 41.5032 24.7794 42.9638C25.2839 45.1131 25.472 46.2521 25.7072 48.5813C25.9456 50.9458 26.1978 51.695 27.5553 54.071C28.4577 55.65 28.7348 56.6019 29.3684 60.299C29.6591 61.9955 29.9527 63.4888 30.0209 63.6173C30.0893 63.7457 30.3846 64.2104 30.6773 64.6495C31.4822 65.8569 31.6037 66.4124 31.3144 67.5743C31.1821 68.105 31.0326 68.9046 30.9819 69.3513C30.8803 70.2452 31.2009 72.4102 31.5648 73.2896C31.6878 73.5864 31.7546 73.9592 31.7136 74.1181C31.6723 74.277 31.8446 75.0714 32.0959 75.8833C32.8823 78.4224 32.8475 79.4994 31.9418 80.6537C31.7796 80.8604 31.6924 80.978 31.6405 81.0573C34.3626 80.3576 36.376 77.8675 36.376 74.9023V46.1856C36.3214 46.2061 36.2822 46.2552 36.2822 46.3133Z" fill="black"/>
</g>
<defs>
<clipPath id="clip0_14_162">
<rect width="41" height="85" fill="white"/>
</clipPath>
</defs>
</svg>
