<svg width="77" height="77" viewBox="0 0 77 77" fill="none" xmlns="http://www.w3.org/2000/svg">
<g clip-path="url(#clip0_14_157)">
<path fill-rule="evenodd" clip-rule="evenodd" d="M61.3576 47.3926C60.2662 46.6288 58.8485 46.1918 57.1016 46.1918C55.4654 46.1918 54.0473 46.6288 52.8481 47.3926C51.6473 48.3733 50.9926 49.5749 50.9926 51.1017C50.9926 52.6292 51.6473 53.7202 52.8481 54.7017C54.0473 55.4655 55.4658 55.9025 57.1016 55.9025C58.8485 55.9025 60.2662 55.4655 61.3576 54.7017C62.6666 53.7202 63.2123 52.6292 63.2123 51.1017C63.2119 49.5749 62.6666 48.3733 61.3576 47.3926ZM57.1012 48.9194C57.8658 48.9194 58.4111 49.1379 58.9568 49.4646C59.3938 49.9017 59.7206 50.3371 59.7206 50.8831C59.8288 52.4107 58.9568 53.1745 57.1012 53.1745C56.3375 53.1745 55.6835 52.956 55.1383 52.519C54.7012 52.0828 54.4835 51.5375 54.4835 50.8827C54.5918 50.3367 54.8111 49.9013 55.2465 49.4642C55.7922 49.1379 56.3375 48.9194 57.1012 48.9194ZM75.4309 46.5186H71.5033L67.6852 50.1202V43.5741H64.0844V55.684H67.6852V50.7741L71.2848 55.684H75.8679L71.1765 50.4469L75.4309 46.5186ZM31.6811 46.4103C29.8259 46.4103 28.4082 46.8473 27.3169 47.6095C26.2259 48.4835 25.6802 49.5749 25.5712 51.1017C25.5712 54.0469 27.644 55.5753 31.8996 55.684H37.2457V53.1749H32.1173C30.6992 53.065 29.7173 52.7379 29.3897 52.0836C28.9535 51.4288 28.9535 50.7745 29.2806 50.1206C29.7173 49.3568 30.5897 48.9198 31.6811 48.9198H33.8629L31.4625 52.0836H34.8448L37.2453 49.0292V46.4107L31.6811 46.4103ZM42.0457 43.5741H38.3362V55.5753H45.1C46.6284 55.5753 47.8276 55.1383 48.7008 54.2654C49.6831 53.5017 50.1193 52.4107 50.2284 51.1017C50.2284 48.4831 49.1378 47.0642 46.9555 46.6288L43.9012 46.519L42.2642 48.9198H43.6827C45.865 48.9198 46.8465 49.5753 46.8465 51.1021C46.7374 52.4111 45.7559 53.1749 43.9012 53.1749H42.0457V43.5741ZM1.13208 43.5741V55.5753H4.84155V46.3008H8.3329C9.09629 46.5186 9.64196 46.9556 9.53331 47.8276C9.53331 48.3729 9.3148 48.8099 8.87858 48.919L5.38722 49.2457L9.20574 55.6832H13.679L9.96953 50.665C12.2609 50.5552 13.3518 49.356 13.1333 47.1737C13.1333 45.9729 12.5876 45.1 11.6062 44.4461C10.7329 43.9008 9.64196 43.5737 8.3329 43.5737L1.13208 43.5741Z" fill="black"/>
<path fill-rule="evenodd" clip-rule="evenodd" d="M19.4613 46.4103C17.6066 46.4103 16.1885 46.8473 15.0971 47.6095C14.0062 48.3733 13.4605 49.5749 13.4605 50.9926C13.3518 54.0469 15.4247 55.5757 19.5704 55.5757H25.0255V53.1749H19.8983C18.4794 53.065 17.4979 52.7379 17.1707 52.0835C16.7341 51.4288 16.7341 50.7745 17.0617 50.1205C17.4979 49.3568 18.3704 48.9197 19.4617 48.9197H21.6436L19.2436 52.0835H22.6259L25.0259 48.9197V46.4107L19.4613 46.4103ZM38.8819 24.3712L44.5547 27.8625L53.6099 24.4806C56.6658 23.4987 60.5934 22.4074 65.2844 21.0979C53.7201 22.0802 44.9917 23.0617 38.8819 24.3712ZM34.5181 28.081L29.4992 26.7716C26.6625 27.5358 23.935 28.7354 21.4259 30.2633C18.916 31.7901 16.9526 33.5366 15.6432 35.3913H24.1535C24.8082 34.409 25.8991 33.3177 27.3173 32.2267C29.3897 30.4815 31.7905 29.172 34.5181 28.081ZM40.5189 30.1535L36.2638 28.735C35.2815 29.172 34.0819 29.7173 32.6629 30.6988C30.6992 32.0082 28.9535 33.6448 27.4263 35.3913H35.3905C36.4815 33.6448 38.2271 31.8996 40.5189 30.1535ZM30.8086 21.0979H13.7884L30.8082 25.6806C38.3362 27.9712 45.3185 30.5905 51.7567 33.3177L30.8086 21.0979Z" fill="black"/>
</g>
<defs>
<clipPath id="clip0_14_157">
<rect width="77" height="77" fill="white"/>
</clipPath>
</defs>
</svg>
