<svg width="37" height="28" viewBox="0 0 37 28" fill="none" xmlns="http://www.w3.org/2000/svg">
<path d="M12 25.5C12 25.8956 11.8827 26.2822 11.6629 26.6111C11.4432 26.94 11.1308 27.1964 10.7654 27.3478C10.3999 27.4991 9.99778 27.5387 9.60982 27.4616C9.22186 27.3844 8.86549 27.1939 8.58579 26.9142C8.30608 26.6345 8.1156 26.2781 8.03843 25.8902C7.96126 25.5022 8.00087 25.1001 8.15224 24.7346C8.30362 24.3692 8.55996 24.0568 8.88886 23.8371C9.21776 23.6173 9.60444 23.5 10 23.5C10.5304 23.5 11.0391 23.7107 11.4142 24.0858C11.7893 24.4609 12 24.9696 12 25.5ZM23 23.5C22.6044 23.5 22.2178 23.6173 21.8889 23.8371C21.56 24.0568 21.3036 24.3692 21.1522 24.7346C21.0009 25.1001 20.9613 25.5022 21.0384 25.8902C21.1156 26.2781 21.3061 26.6345 21.5858 26.9142C21.8655 27.1939 22.2219 27.3844 22.6098 27.4616C22.9978 27.5387 23.3999 27.4991 23.7654 27.3478C24.1308 27.1964 24.4432 26.94 24.6629 26.6111C24.8827 26.2822 25 25.8956 25 25.5C25 24.9696 24.7893 24.4609 24.4142 24.0858C24.0391 23.7107 23.5304 23.5 23 23.5ZM24.3068 20.916C24.6137 20.332 24 21.5 24.3068 20.916C24 21.5 23.1646 21.5022 22.5225 21.5H10.5087C9.85747 21.4976 9.2245 21.2842 8.70463 20.8919C8.18477 20.4996 7.80598 19.9494 7.625 19.3237L3.1025 3.5H1C0.734784 3.5 0.48043 3.39464 0.292893 3.20711C0.105357 3.01957 0 2.76522 0 2.5C0 2.23478 0.105357 1.98043 0.292893 1.79289C0.48043 1.60536 0.734784 1.5 1 1.5H3.1025C3.53676 1.50144 3.95888 1.64349 4.30567 1.90487C4.65246 2.16626 4.90526 2.53293 5.02625 2.95L6.04 6.5L27.5 1.90487L24.3068 20.916ZM24.3068 20.916L27.5 1.90487L6.04 6.5L9.5475 18.775C9.60724 18.9839 9.73336 19.1676 9.90679 19.2984C10.0802 19.4292 10.2915 19.5 10.5087 19.5H22.5225C22.7365 19.5001 21.7027 19.506 23 19.5C24.2973 19.494 24.3068 20.916 24.3068 20.916Z" fill="#FF0000"/>
<path fill-rule="evenodd" clip-rule="evenodd" d="M25 19.9595C25 20.3821 25.3314 20.7335 25.754 20.7294C27.1994 20.7157 28.636 20.4505 29.9847 19.941C32.0612 19.1565 33.8361 17.828 35.0848 16.1235C36.3335 14.419 37 12.415 37 10.365C36.9968 7.61692 35.7985 4.98223 33.668 3.03904C31.5375 1.09586 28.6488 0.00290202 25.6358 0V0C25.2794 0 25 0.295867 25 0.65228V0.770538C25 1.22779 25.3857 1.58766 25.8429 1.59665C27.0297 1.61997 28.2077 1.84367 29.3156 2.26222C31.0727 2.92603 32.5745 4.05015 33.6311 5.49243C34.6877 6.93472 35.2517 8.63038 35.2517 10.365C35.2488 12.6902 34.2347 14.9195 32.432 16.5637C30.6293 18.2079 28.1852 19.1327 25.6358 19.1354V19.1354C25.2908 19.1354 25 19.4074 25 19.7524V19.9595ZM25 10.888C25 10.9035 25.0062 10.9184 25.0176 10.9288V10.9288C25.1816 11.0783 25.4039 11.1623 25.6358 11.1623H31.755C31.9868 11.1623 32.2092 11.0783 32.3731 10.9288C32.5371 10.7793 32.6292 10.5765 32.6292 10.365C32.6292 10.1535 32.5371 9.95074 32.3731 9.80122C32.2092 9.65169 31.9868 9.56769 31.755 9.56769H27.5099C26.9577 9.56769 26.5099 9.11998 26.5099 8.56769V4.78385C26.5099 4.57239 26.4178 4.36959 26.2539 4.22006C26.09 4.07054 25.8676 3.98654 25.6358 3.98654C25.4039 3.98654 25.1816 4.07054 25.0176 4.22006V4.22006C25.0062 4.23049 25 4.24536 25 4.26083V10.888Z" fill="#FF0000"/>
<rect x="14" y="6" width="9" height="2" rx="1" fill="#FF0000"/>
<rect x="12" y="10" width="9" height="2" rx="1" fill="#FF0000"/>
<rect x="10" y="14" width="9" height="2" rx="1" fill="#FF0000"/>
</svg>
